# Blender 3.5.0
# www.blender.org
mtllib bars_metal.mtl
o bars_metal
v 30.489435 10.000012 37.752312
v 40.000000 10.000013 45.167034
v 40.000000 -9.999988 36.352802
v 49.510567 10.000012 37.752312
v 45.167519 10.000011 29.331085
v 45.167519 300.000000 29.331062
v 34.832493 300.000000 29.331057
v 70.489433 10.000012 37.752312
v 80.000000 10.000013 45.167034
v 80.000000 -9.999988 36.352802
v 89.510567 10.000012 37.752312
v 85.457687 10.000011 29.331085
v 85.457687 300.000000 29.331062
v 74.542320 300.000000 29.331057
v 110.489433 10.000012 37.752312
v 120.000000 10.000013 45.167034
v 120.000000 -9.999988 36.352802
v 129.510559 10.000012 37.752312
v 125.225380 10.000011 29.331085
v 125.225380 300.000000 29.331062
v 114.774612 300.000000 29.331057
v -49.510567 10.000012 37.752312
v -40.000000 10.000013 45.167034
v -40.000000 -9.999988 36.352802
v -30.489435 10.000012 37.752312
v -34.629128 10.000011 29.331085
v -34.629128 300.000000 29.331062
v -45.370880 300.000000 29.331057
v -9.510567 10.000012 37.752312
v 0.000000 10.000013 45.167034
v 0.000000 -9.999988 36.352802
v 9.510565 10.000012 37.752312
v 5.063229 10.000011 29.331085
v 5.063229 300.000000 29.331062
v -5.063229 300.000000 29.331057
v 40.000000 300.000000 45.167011
v 49.510567 300.000000 37.752289
v 80.000000 300.000000 45.167011
v 89.510567 300.000000 37.752289
v 120.000000 300.000000 45.167011
v 129.510559 300.000000 37.752289
v -30.489435 300.000000 37.752289
v -40.000000 300.000000 45.167011
v -125.182373 10.000011 29.331079
v -120.000000 -9.999988 36.352802
v -114.817612 10.000011 29.331085
v -110.489433 10.000012 37.752312
v -114.817612 300.000000 29.331062
v -110.489433 300.000000 37.752289
v -85.211334 10.000011 29.331079
v -80.000000 -9.999988 36.352802
v -74.788681 10.000011 29.331085
v -70.489433 10.000012 37.752312
v -74.788681 300.000000 29.331062
v -70.489433 300.000000 37.752289
v 0.000000 300.000000 45.167011
v 9.510565 300.000000 37.752289
v -129.510559 10.000012 37.752312
v -120.000000 10.000013 45.167034
v -120.000000 300.000000 45.167011
v -89.510567 10.000012 37.752312
v -80.000000 10.000013 45.167034
v -80.000000 300.000000 45.167011
v 0.000000 -9.999988 36.352802
v -5.063229 10.000011 29.331079
v -9.510567 300.000000 37.752289
v -80.000000 -9.999988 36.352802
v -85.211334 10.000011 29.331079
v -89.510567 300.000000 37.752289
v -120.000000 -9.999988 36.352802
v -125.182373 10.000011 29.331079
v -129.510559 300.000000 37.752289
v -40.000000 -9.999988 36.352802
v -45.370880 10.000011 29.331079
v -49.510567 300.000000 37.752289
v 120.000000 -9.999988 36.352802
v 114.774612 10.000011 29.331079
v 110.489433 300.000000 37.752289
v 40.000000 -9.999988 36.352802
v 34.832493 10.000011 29.331079
v 30.489435 300.000000 37.752289
v 80.000000 -9.999988 36.352802
v 74.542320 10.000011 29.331079
v 70.489433 300.000000 37.752289
v -5.063229 10.000011 29.331079
v 34.832493 10.000011 29.331079
v -85.211334 300.000000 29.331057
v 74.542320 10.000011 29.331079
v -125.182373 300.000000 29.331057
v -45.370880 10.000011 29.331079
v 114.774612 10.000011 29.331079
v -85.211334 300.000000 29.331057
v -45.370880 300.000000 29.331057
v 114.774612 300.000000 29.331057
v 74.542320 300.000000 29.331057
v -125.182373 300.000000 29.331057
v 34.832493 300.000000 29.331057
v -5.063229 300.000000 29.331057
vn -0.0000 -0.9843 -0.1764
vn -0.0000 -0.2093 0.9779
vn -0.9509 -0.2260 0.2116
vn 0.9509 -0.2260 0.2116
vn 0.5077 -0.2056 -0.8366
vn 0.5204 -0.0000 -0.8539
vn -0.5204 -0.0000 -0.8539
vn -0.0000 -0.9889 -0.1485
vn -0.9479 -0.2255 0.2252
vn 0.9479 -0.2255 0.2252
vn 0.5184 -0.2091 -0.8292
vn 0.5321 -0.0000 -0.8467
vn -0.5321 -0.0000 -0.8467
vn -0.0000 -0.9853 -0.1710
vn -0.9503 -0.2259 0.2143
vn 0.9503 -0.2259 0.2143
vn 0.5098 -0.2063 -0.8352
vn 0.5227 -0.0000 -0.8525
vn -0.5227 -0.0000 -0.8525
vn -0.0000 -0.9876 -0.1570
vn -0.9488 -0.2256 0.2211
vn 0.9488 -0.2256 0.2211
vn 0.5152 -0.2080 -0.8314
vn 0.5286 -0.0000 -0.8489
vn -0.5286 -0.0000 -0.8489
vn -0.0000 -0.9825 -0.1863
vn -0.9519 -0.2261 0.2069
vn 0.9519 -0.2261 0.2069
vn 0.5039 -0.2043 -0.8393
vn 0.5162 -0.0000 -0.8564
vn -0.5163 -0.0000 -0.8564
vn -0.0000 -0.0000 1.0000
vn 0.9767 -0.0000 0.2145
vn 0.9737 -0.0000 0.2280
vn 0.9761 -0.0000 0.2172
vn 0.9746 -0.0000 0.2239
vn 0.5083 -0.2057 -0.8363
vn -0.0000 -0.9846 -0.1751
vn -0.5083 -0.2057 -0.8363
vn 0.9507 -0.2260 0.2123
vn 0.5210 -0.0000 -0.8536
vn 0.9766 -0.0000 0.2152
vn 0.5093 -0.2061 -0.8356
vn -0.0000 -0.9850 -0.1723
vn -0.5093 -0.2061 -0.8356
vn 0.9504 -0.2259 0.2136
vn 0.5222 -0.0000 -0.8528
vn 0.9763 -0.0000 0.2166
vn 0.9777 -0.0000 0.2098
vn -0.9507 -0.2260 0.2123
vn -0.9504 -0.2259 0.2136
vn -0.5039 -0.2043 -0.8393
vn -0.9777 -0.0000 0.2098
vn -0.0000 -0.9850 -0.1724
vn -0.9763 -0.0000 0.2166
vn -0.0000 -0.9845 -0.1751
vn -0.9766 -0.0000 0.2152
vn -0.5152 -0.2080 -0.8314
vn -0.9746 -0.0000 0.2239
vn -0.5098 -0.2062 -0.8352
vn -0.0000 -0.9853 -0.1709
vn -0.9761 -0.0000 0.2172
vn -0.5077 -0.2056 -0.8366
vn -0.9767 -0.0000 0.2145
vn -0.5184 -0.2091 -0.8292
vn -0.9737 -0.0000 0.2280
vn -0.5222 -0.0000 -0.8529
vn -0.5210 -0.0000 -0.8536
vn -0.5222 -0.0000 -0.8528
vn -0.5210 -0.0000 -0.8535
vt 0.285156 0.066406
vt 0.500000 0.066406
vt 1.000000 0.000000
vt 0.714844 0.066406
vt 0.906250 0.066406
vt 0.906250 1.000000
vt 1.089844 1.000000
vt 0.285156 0.066406
vt 0.500000 0.066406
vt 1.000000 0.000000
vt 0.714844 0.066406
vt 0.906250 0.066406
vt 0.906250 1.000000
vt 1.089844 1.000000
vt 0.285156 0.066406
vt 0.500000 0.066406
vt 1.000000 0.000000
vt 0.714844 0.066406
vt 0.906250 0.066406
vt 0.906250 1.000000
vt 1.089844 1.000000
vt 0.285156 0.066406
vt 0.500000 0.066406
vt 1.000000 0.000000
vt 0.714844 0.066406
vt 0.906250 0.066406
vt 0.906250 1.000000
vt 1.089844 1.000000
vt 0.285156 0.066406
vt 0.500000 0.066406
vt 1.000000 0.000000
vt 0.714844 0.066406
vt 0.906250 0.066406
vt 0.906250 1.000000
vt 1.089844 1.000000
vt 0.500000 1.000000
vt 0.714844 1.000000
vt 0.500000 1.000000
vt 0.714844 1.000000
vt 0.500000 1.000000
vt 0.714844 1.000000
vt 0.714844 1.000000
vt 0.500000 1.000000
vt 1.089844 0.066406
vt 1.000000 0.000000
vt 0.906250 0.066406
vt 0.714844 0.066406
vt 0.906250 1.000000
vt 0.714844 1.000000
vt 1.089844 0.066406
vt 1.000000 0.000000
vt 0.906250 0.066406
vt 0.714844 0.066406
vt 0.906250 1.000000
vt 0.714844 1.000000
vt 0.500000 1.000000
vt 0.714844 1.000000
vt 0.285156 0.066406
vt 0.500000 0.066406
vt 0.500000 1.000000
vt 0.285156 0.066406
vt 0.500000 0.066406
vt 0.500000 1.000000
vt 0.000000 0.000000
vt 0.089844 0.066406
vt 0.285156 1.000000
vt 0.000000 0.000000
vt 0.089844 0.066406
vt 0.285156 1.000000
vt 0.000000 0.000000
vt 0.089844 0.066406
vt 0.285156 1.000000
vt 0.000000 0.000000
vt 0.089844 0.066406
vt 0.285156 1.000000
vt 0.000000 0.000000
vt 0.089844 0.066406
vt 0.285156 1.000000
vt 0.000000 0.000000
vt 0.089844 0.066406
vt 0.285156 1.000000
vt 0.000000 0.000000
vt 0.089844 0.066406
vt 0.285156 1.000000
vt 1.089844 0.066406
vt 1.089844 0.066406
vt 1.089844 1.000000
vt 1.089844 0.066406
vt 1.089844 1.000000
vt 1.089844 0.066406
vt 1.089844 0.066406
vt 0.089844 1.000000
vt 0.089844 1.000000
vt 0.089844 1.000000
vt 0.089844 1.000000
vt 0.089844 1.000000
vt 0.089844 1.000000
vt 0.089844 1.000000
s 1
usemtl mstop10_v
f 3/3/1 2/2/2 1/1/3
f 3/3/1 4/4/4 2/2/2
f 5/5/5 4/4/4 3/3/1
f 5/5/5 6/6/6 4/4/4
f 7/7/7 6/6/6 5/5/5
f 10/10/8 9/9/2 8/8/9
f 10/10/8 11/11/10 9/9/2
f 12/12/11 11/11/10 10/10/8
f 12/12/11 13/13/12 11/11/10
f 14/14/13 13/13/12 12/12/11
f 17/17/14 16/16/2 15/15/15
f 17/17/14 18/18/16 16/16/2
f 19/19/17 18/18/16 17/17/14
f 19/19/17 20/20/18 18/18/16
f 21/21/19 20/20/18 19/19/17
f 24/24/20 23/23/2 22/22/21
f 24/24/20 25/25/22 23/23/2
f 26/26/23 25/25/22 24/24/20
f 26/26/23 27/27/24 25/25/22
f 28/28/25 27/27/24 26/26/23
f 31/31/26 30/30/2 29/29/27
f 31/31/26 32/32/28 30/30/2
f 33/33/29 32/32/28 31/31/26
f 33/33/29 34/34/30 32/32/28
f 35/35/31 34/34/30 33/33/29
f 2/2/2 36/36/32 1/1/3
f 2/2/2 37/37/33 36/36/32
f 4/4/4 37/37/33 2/2/2
f 4/4/4 6/6/6 37/37/33
f 9/9/2 38/38/32 8/8/9
f 9/9/2 39/39/34 38/38/32
f 11/11/10 39/39/34 9/9/2
f 11/11/10 13/13/12 39/39/34
f 16/16/2 40/40/32 15/15/15
f 16/16/2 41/41/35 40/40/32
f 18/18/16 41/41/35 16/16/2
f 18/18/16 20/20/18 41/41/35
f 42/42/36 25/25/22 27/27/24
f 42/42/36 23/23/2 25/25/22
f 43/43/32 23/23/2 42/42/36
f 43/43/32 22/22/21 23/23/2
f 46/46/37 45/45/38 44/44/39
f 46/46/37 47/47/40 45/45/38
f 48/48/41 47/47/40 46/46/37
f 48/48/41 49/49/42 47/47/40
f 52/52/43 51/51/44 50/50/45
f 52/52/43 53/53/46 51/51/44
f 54/54/47 53/53/46 52/52/43
f 54/54/47 55/55/48 53/53/46
f 30/30/2 56/56/32 29/29/27
f 30/30/2 57/57/49 56/56/32
f 32/32/28 57/57/49 30/30/2
f 32/32/28 34/34/30 57/57/49
f 59/59/2 58/58/50 45/45/38
f 59/59/2 60/60/32 58/58/50
f 49/49/42 60/60/32 59/59/2
f 62/62/2 61/61/51 51/51/44
f 62/62/2 63/63/32 61/61/51
f 55/55/48 63/63/32 62/62/2
f 29/29/27 65/65/52 64/64/26
f 29/29/27 66/66/53 65/65/52
f 56/56/32 66/66/53 29/29/27
f 61/61/51 68/68/45 67/67/54
f 61/61/51 69/69/55 68/68/45
f 63/63/32 69/69/55 61/61/51
f 58/58/50 71/71/39 70/70/56
f 58/58/50 72/72/57 71/71/39
f 60/60/32 72/72/57 58/58/50
f 22/22/21 74/74/58 73/73/20
f 22/22/21 75/75/59 74/74/58
f 43/43/32 75/75/59 22/22/21
f 15/15/15 77/77/60 76/76/61
f 15/15/15 78/78/62 77/77/60
f 40/40/32 78/78/62 15/15/15
f 1/1/3 80/80/63 79/79/1
f 1/1/3 81/81/64 80/80/63
f 36/36/32 81/81/64 1/1/3
f 8/8/9 83/83/65 82/82/8
f 8/8/9 84/84/66 83/83/65
f 38/38/32 84/84/66 8/8/9
f 85/85/52 33/33/29 31/31/26
f 85/85/52 35/35/31 33/33/29
f 86/86/63 5/5/5 3/3/1
f 86/86/63 7/7/7 5/5/5
f 87/87/67 52/52/43 50/50/45
f 87/87/67 54/54/47 52/52/43
f 53/53/46 62/62/2 51/51/44
f 53/53/46 55/55/48 62/62/2
f 88/88/65 12/12/11 10/10/8
f 88/88/65 14/14/13 12/12/11
f 89/89/68 46/46/37 44/44/39
f 89/89/68 48/48/41 46/46/37
f 47/47/40 59/59/2 45/45/38
f 47/47/40 49/49/42 59/59/2
f 90/90/58 26/26/23 24/24/20
f 90/90/58 28/28/25 26/26/23
f 91/91/60 19/19/17 17/17/14
f 91/91/60 21/21/19 19/19/17
f 68/68/45 69/69/55 92/92/69
f 74/74/58 75/75/59 93/93/25
f 77/77/60 78/78/62 94/94/19
f 83/83/65 84/84/66 95/95/13
f 71/71/39 72/72/57 96/96/70
f 80/80/63 81/81/64 97/97/7
f 65/65/52 66/66/53 98/98/31
