# Blender v2.92.0 OBJ File: ''
# www.blender.org
mtllib vines09.mtl
o vines09
v -4.476563 -597.500000 -1.960938
v -12.406250 -546.000000 -2.064453
v -48.000000 -544.500000 -3.941406
v -37.437500 -599.500000 -3.316406
v -24.781250 15.375000 -2.914063
v -60.218750 15.375000 -5.132813
v -52.500000 -31.250000 -4.066406
v -17.640625 -31.250000 -2.164063
v -26.375000 -490.500000 -0.933105
v 24.781250 -494.250000 0.045746
v -21.328125 -437.500000 0.650879
v 42.968750 -443.000000 -0.376465
v -3.007813 -388.000000 1.099609
v 33.593750 -389.250000 -0.509277
v 5.214844 -338.000000 1.038086
v 50.562500 -338.000000 -1.862305
v 10.679688 -286.750000 0.732910
v 66.812500 -286.750000 -3.052734
v 19.937500 -237.250000 0.096802
v 62.906250 -233.500000 -2.306641
v 5.972656 -184.625000 0.496826
v 43.656250 -184.625000 -0.693848
v -20.625000 -133.500000 0.023331
v 27.187500 -133.500000 -0.005650
v -35.125000 -82.375000 -1.739258
v 2.291016 -82.375000 -0.600586
v -10.960938 -1212.000000 -2.816406
v -24.640625 -1161.000000 -2.949219
v -61.093750 -1161.000000 -5.222656
v -45.250000 -1216.000000 -4.976563
v -4.476563 -597.500000 -1.960938
v -37.437500 -599.500000 -3.316406
v -13.140625 -647.000000 0.142944
v 22.875000 -642.000000 -0.098572
v -57.062500 -1105.000000 -5.277344
v -7.812500 -1105.000000 -1.983398
v -71.062500 -1051.000000 -5.238281
v -4.765625 -1056.000000 -1.500000
v -50.750000 -999.000000 -2.402344
v -18.265625 -1003.000000 -1.325195
v -37.437500 -947.000000 -0.124573
v 6.445313 -952.500000 -0.032562
v -12.039063 -902.000000 1.022461
v 38.937500 -906.000000 -0.476563
v 21.218750 -851.500000 0.019424
v 61.937500 -853.500000 -2.193359
v 29.484375 -798.000000 -0.531250
v 66.937500 -798.000000 -3.046875
v 27.937500 -747.000000 -0.419678
v 69.125000 -747.000000 -3.070313
v 12.281250 -697.000000 0.379639
v 52.875000 -693.500000 -1.449219
v -26.046875 -1824.000000 -3.177734
v -29.375000 -1769.000000 -3.404297
v -64.250000 -1769.000000 -5.726563
v -61.312500 -1825.000000 -5.519531
v -10.960938 -1212.000000 -2.816406
v -45.250000 -1216.000000 -4.976563
v -25.937500 -1261.000000 -0.650391
v 7.195313 -1255.000000 -0.200073
v -49.000000 -1718.000000 -3.857422
v 0.258057 -1718.000000 -1.176758
v -53.656250 -1664.000000 -2.281250
v 12.023438 -1670.000000 -0.296387
v -29.406250 -1613.000000 0.040039
v 5.199219 -1616.000000 0.008995
v -12.500000 -1564.000000 1.082031
v 28.890625 -1565.000000 -0.234375
v 1.153320 -1514.000000 1.136719
v 60.562500 -1514.000000 -2.175781
v 28.984375 -1462.000000 -0.502441
v 70.125000 -1462.000000 -3.277344
v 28.828125 -1412.000000 -0.467529
v 62.312500 -1410.000000 -2.625000
v 17.984375 -1363.000000 0.171265
v 58.125000 -1354.000000 -1.743164
v -3.931641 -1312.000000 0.469727
v 33.531250 -1305.000000 -0.244751
v -14.843750 -2438.000000 -1.875977
v -20.437500 -2382.000000 -2.183594
v -54.343750 -2382.000000 -3.935547
v -51.125000 -2438.000000 -3.730469
v -26.046875 -1824.000000 -3.177734
v -61.312500 -1825.000000 -5.519531
v -45.531250 -1874.000000 -3.068359
v -14.101563 -1869.000000 -1.618164
v -31.515625 -2330.000000 -1.393555
v 18.750000 -2334.000000 -0.083435
v -30.656250 -2276.000000 0.277100
v 34.875000 -2284.000000 -0.079285
v -5.535156 -2226.000000 0.972656
v 27.984375 -2230.000000 -0.233521
v 1.734375 -2176.000000 1.154297
v 46.156250 -2178.000000 -1.434570
v 11.000000 -2128.000000 0.716309
v 71.687500 -2126.000000 -3.408203
v 25.562500 -2078.000000 -0.248657
v 66.375000 -2072.000000 -2.818359
v 15.375000 -2026.000000 0.265625
v 48.937500 -2022.000000 -1.200195
v -9.320313 -1976.000000 0.440186
v 38.000000 -1970.000000 -0.252197
v -25.828125 -1924.000000 -0.837891
v 10.148438 -1921.000000 -0.208496
v 26.125000 -613.000000 -33.687500
v 22.609375 -557.500000 -25.656250
v 7.062500 -557.500000 -28.515625
v 15.296875 -613.000000 -33.812500
v 62.625000 0.515625 -18.953125
v 50.812500 0.515625 -13.218750
v 41.343750 -46.093750 0.883301
v 55.781250 -46.093750 -4.929688
v -5.722656 -506.250000 -21.343750
v 7.992188 -506.250000 -17.125000
v -21.968750 -455.250000 -21.203125
v -6.375000 -455.250000 -14.335938
v -25.046875 -404.000000 -24.187500
v -11.937500 -404.000000 -17.390625
v -24.093750 -353.000000 -22.671875
v -11.726563 -353.000000 -16.390625
v -17.781250 -301.750000 -8.406250
v -5.871094 -301.750000 -3.246094
v -5.261719 -250.625000 12.140625
v 9.289063 -250.625000 16.156250
v 5.136719 -199.500000 23.906250
v 19.890625 -199.500000 25.531250
v 28.359375 -148.375000 25.312500
v 44.406250 -148.375000 24.312500
v 38.375000 -97.250000 15.664063
v 52.562500 -97.250000 12.382813
v 66.500000 -1226.000000 -19.218750
v 69.375000 -1171.000000 -15.804688
v 52.968750 -1171.000000 -9.984375
v 55.468750 -1226.000000 -13.976563
v 26.125000 -613.000000 -33.687500
v 15.296875 -613.000000 -33.812500
v -0.805664 -659.500000 -37.218750
v 14.007813 -659.500000 -34.937500
v 38.750000 -1120.000000 -3.433594
v 52.968750 -1120.000000 -6.164063
v 14.703125 -1068.000000 -8.648438
v 30.890625 -1068.000000 -8.742188
v -2.115234 -1017.500000 -24.062500
v 14.179688 -1017.500000 -21.812500
v -12.984375 -966.500000 -37.718750
v 0.652344 -966.500000 -33.625000
v -18.796875 -915.000000 -44.781250
v -6.597656 -915.000000 -39.500000
v -18.671875 -864.000000 -43.718750
v -5.464844 -864.000000 -37.000000
v -21.828125 -813.000000 -44.343750
v -8.195313 -813.000000 -37.406250
v -10.062500 -761.500000 -41.343750
v 5.031250 -761.500000 -34.718750
v -5.378906 -710.500000 -42.250000
v 8.164063 -710.500000 -37.968750
v 0.014694 -1840.000000 24.187500
v 3.273438 -1784.000000 31.031250
v -12.148438 -1784.000000 23.718750
v -11.562500 -1840.000000 19.906250
v 66.500000 -1226.000000 -19.218750
v 55.468750 -1226.000000 -13.976563
v 57.000000 -1273.000000 -14.125000
v 71.500000 -1273.000000 -21.859375
v -16.625000 -1733.000000 24.078125
v -3.089844 -1733.000000 31.093750
v -19.781250 -1682.000000 20.437500
v -4.847656 -1682.000000 27.578125
v -8.343750 -1631.000000 21.578125
v 7.078125 -1631.000000 27.390625
v 13.281250 -1580.000000 28.625000
v 27.921875 -1580.000000 32.093750
v 38.625000 -1528.000000 35.125000
v 51.843750 -1528.000000 36.156250
v 62.562500 -1477.000000 31.953125
v 77.375000 -1477.000000 30.546875
v 70.062500 -1426.000000 19.781250
v 84.250000 -1426.000000 15.664063
v 79.250000 -1375.000000 -0.319336
v 93.875000 -1375.000000 -6.957031
v 71.187500 -1324.000000 -12.937500
v 84.687500 -1324.000000 -20.265625
v 13.281250 -2452.000000 -1.544922
v 39.687500 -2398.000000 -0.035187
v 23.796875 -2398.000000 -0.011787
v -1.187500 -2452.000000 -4.199219
v 0.014694 -1840.000000 24.187500
v -11.562500 -1840.000000 19.906250
v -5.769531 -1886.000000 21.140625
v 8.968750 -1886.000000 24.703125
v 34.218750 -2346.000000 -2.171875
v 48.718750 -2346.000000 -4.675781
v 37.218750 -2294.000000 -3.207031
v 52.937500 -2296.000000 -8.382813
v 43.656250 -2244.000000 -3.615234
v 57.968750 -2244.000000 -10.085938
v 48.781250 -2192.000000 -2.470703
v 61.656250 -2192.000000 -9.132813
v 49.593750 -2142.000000 1.782227
v 62.375000 -2142.000000 -4.687500
v 49.281250 -2090.000000 7.906250
v 63.218750 -2090.000000 1.849609
v 38.093750 -2040.000000 18.859375
v 52.593750 -2040.000000 14.781250
v 33.437500 -1989.000000 25.406250
v 50.031250 -1989.000000 23.718750
v 15.875000 -1937.000000 26.328125
v 30.828125 -1937.000000 27.593750
vt 0.344727 0.000977
vt 0.342529 0.085938
vt 0.314209 0.087891
vt 0.316162 0.000977
vt 0.344727 0.999522
vt 0.316406 0.999522
vt 0.317139 0.920288
vt 0.344971 0.928406
vt 0.319580 0.177246
vt 0.360352 0.173828
vt 0.305420 0.258301
vt 0.357178 0.257813
vt 0.304443 0.341797
vt 0.333008 0.346191
vt 0.301514 0.423828
vt 0.337891 0.427246
vt 0.303711 0.507568
vt 0.349609 0.509766
vt 0.317627 0.589600
vt 0.352539 0.593262
vt 0.319092 0.669678
vt 0.349609 0.677734
vt 0.313965 0.753418
vt 0.352783 0.760254
vt 0.318848 0.834717
vt 0.348633 0.844238
vt 0.344727 0.000977
vt 0.343262 0.090820
vt 0.313721 0.088379
vt 0.316162 0.000977
vt 0.344727 0.999522
vt 0.316406 0.999522
vt 0.316895 0.919067
vt 0.343750 0.929443
vt 0.320313 0.172852
vt 0.360352 0.173828
vt 0.302979 0.257324
vt 0.357178 0.257813
vt 0.306885 0.341797
vt 0.333252 0.343750
vt 0.301514 0.423828
vt 0.337891 0.422852
vt 0.304688 0.508301
vt 0.346680 0.506104
vt 0.319580 0.594971
vt 0.352783 0.591064
vt 0.319336 0.676758
vt 0.349854 0.676025
vt 0.319824 0.757690
vt 0.353027 0.759644
vt 0.317383 0.838379
vt 0.349365 0.844727
vt 0.344727 0.000977
vt 0.342529 0.087891
vt 0.313965 0.090332
vt 0.316162 0.000977
vt 0.344727 0.999522
vt 0.316406 0.999522
vt 0.316895 0.921204
vt 0.343018 0.929626
vt 0.320068 0.176758
vt 0.360352 0.173828
vt 0.303467 0.257813
vt 0.357178 0.257813
vt 0.306396 0.342285
vt 0.334473 0.342773
vt 0.303955 0.424805
vt 0.338135 0.421875
vt 0.302246 0.507568
vt 0.350830 0.507324
vt 0.318848 0.593506
vt 0.352051 0.592529
vt 0.320313 0.675293
vt 0.347656 0.676514
vt 0.320801 0.756958
vt 0.354004 0.759033
vt 0.317383 0.839111
vt 0.347900 0.844604
vt 0.344727 0.000977
vt 0.342041 0.085449
vt 0.314209 0.089844
vt 0.316162 0.000977
vt 0.344727 0.999522
vt 0.316406 0.999522
vt 0.317627 0.922058
vt 0.342773 0.929443
vt 0.319336 0.178223
vt 0.360352 0.173828
vt 0.302979 0.257813
vt 0.356689 0.257813
vt 0.307129 0.342285
vt 0.333740 0.345215
vt 0.301514 0.423828
vt 0.337646 0.424805
vt 0.303955 0.507813
vt 0.353271 0.508545
vt 0.318604 0.591309
vt 0.351807 0.593262
vt 0.320313 0.673096
vt 0.347900 0.677490
vt 0.315674 0.754395
vt 0.354248 0.759277
vt 0.319092 0.836792
vt 0.347900 0.844971
vt 0.141113 0.000488
vt 0.149658 0.090820
vt 0.136719 0.087891
vt 0.131104 0.000488
vt 0.141113 1.000371
vt 0.131104 1.000371
vt 0.127808 0.924744
vt 0.140503 0.923828
vt 0.135376 0.172363
vt 0.147217 0.174805
vt 0.127075 0.257324
vt 0.140747 0.259766
vt 0.126709 0.340820
vt 0.138428 0.342773
vt 0.126953 0.424316
vt 0.138184 0.424316
vt 0.128784 0.507568
vt 0.139404 0.505371
vt 0.132080 0.592041
vt 0.144531 0.589844
vt 0.130249 0.674805
vt 0.142334 0.671875
vt 0.137207 0.760498
vt 0.150269 0.757324
vt 0.134155 0.843140
vt 0.145996 0.840332
vt 0.141113 0.000488
vt 0.150635 0.090820
vt 0.136475 0.088867
vt 0.131104 0.000488
vt 0.141113 1.000371
vt 0.131104 1.000371
vt 0.128296 0.924622
vt 0.140625 0.923523
vt 0.134888 0.171875
vt 0.146362 0.175293
vt 0.127686 0.256836
vt 0.140381 0.260742
vt 0.126221 0.340332
vt 0.139038 0.344727
vt 0.126953 0.423828
vt 0.138184 0.427734
vt 0.128784 0.506592
vt 0.139404 0.509033
vt 0.132202 0.590332
vt 0.144287 0.591553
vt 0.129517 0.674072
vt 0.141968 0.673584
vt 0.136963 0.757935
vt 0.150513 0.757324
vt 0.134399 0.841919
vt 0.145996 0.840332
vt 0.141113 0.000488
vt 0.150635 0.090820
vt 0.136719 0.089355
vt 0.131104 0.000488
vt 0.141113 1.000371
vt 0.131104 1.000371
vt 0.127197 0.924011
vt 0.140625 0.926453
vt 0.134644 0.173828
vt 0.146973 0.174316
vt 0.127319 0.257324
vt 0.140625 0.256836
vt 0.125244 0.340820
vt 0.138672 0.338379
vt 0.126465 0.424316
vt 0.138794 0.421387
vt 0.128662 0.508545
vt 0.139771 0.504883
vt 0.132446 0.593018
vt 0.144653 0.590332
vt 0.130127 0.675293
vt 0.142212 0.673584
vt 0.137085 0.759155
vt 0.150391 0.757324
vt 0.134033 0.841309
vt 0.146851 0.841431
vt 0.141113 0.000488
vt 0.150635 0.090820
vt 0.137695 0.093750
vt 0.131104 0.000488
vt 0.141113 1.000371
vt 0.131104 1.000371
vt 0.128052 0.923584
vt 0.140015 0.927246
vt 0.134399 0.176270
vt 0.146484 0.173828
vt 0.127075 0.257813
vt 0.140381 0.258301
vt 0.125854 0.340820
vt 0.138428 0.342773
vt 0.127319 0.424316
vt 0.138916 0.426758
vt 0.128662 0.507080
vt 0.140137 0.509766
vt 0.132324 0.590088
vt 0.144531 0.592529
vt 0.130371 0.673096
vt 0.142578 0.675781
vt 0.136963 0.754517
vt 0.150635 0.757324
vt 0.134644 0.838257
vt 0.146606 0.841797
vn -0.0354 0.0277 0.9990
vn -0.0462 -0.0196 0.9987
vn -0.0512 -0.0176 0.9985
vn -0.0424 0.0223 0.9989
vn -0.0593 0.0106 0.9982
vn -0.0625 0.0125 0.9980
vn -0.0524 0.0138 0.9985
vn -0.0545 0.0086 0.9985
vn -0.0271 -0.0282 0.9992
vn -0.0077 -0.0162 0.9998
vn 0.0055 -0.0134 0.9999
vn 0.0214 -0.0011 0.9998
vn 0.0347 -0.0046 0.9994
vn 0.0486 0.0045 0.9988
vn 0.0596 0.0001 0.9982
vn 0.0649 0.0024 0.9979
vn 0.0664 0.0004 0.9978
vn 0.0647 -0.0015 0.9979
vn 0.0588 0.0010 0.9983
vn 0.0520 -0.0069 0.9986
vn 0.0358 0.0126 0.9993
vn 0.0259 -0.0095 0.9996
vn 0.0050 0.0224 0.9997
vn -0.0038 -0.0008 1.0000
vn -0.0245 0.0268 0.9993
vn -0.0338 0.0075 0.9994
vn -0.0567 0.0283 0.9980
vn -0.0632 -0.0048 0.9980
vn -0.0621 -0.0034 0.9981
vn -0.0653 0.0203 0.9977
vn 0.0002 0.0264 0.9997
vn 0.0064 0.0024 1.0000
vn -0.0661 -0.0080 0.9978
vn -0.0636 -0.0051 0.9980
vn -0.0601 -0.0219 0.9979
vn -0.0540 -0.0145 0.9984
vn -0.0436 -0.0281 0.9987
vn -0.0294 -0.0208 0.9994
vn -0.0118 -0.0250 0.9996
vn 0.0048 -0.0193 0.9998
vn 0.0194 -0.0101 0.9998
vn 0.0354 -0.0013 0.9994
vn 0.0482 0.0038 0.9988
vn 0.0573 0.0064 0.9983
vn 0.0644 0.0032 0.9979
vn 0.0664 0.0039 0.9978
vn 0.0647 0.0016 0.9979
vn 0.0607 -0.0034 0.9982
vn 0.0472 0.0124 0.9988
vn 0.0401 -0.0066 0.9992
vn -0.0634 0.0141 0.9979
vn -0.0635 -0.0082 0.9979
vn -0.0664 -0.0076 0.9978
vn -0.0665 0.0127 0.9977
vn -0.0246 0.0353 0.9991
vn -0.0170 0.0175 0.9997
vn -0.0566 -0.0232 0.9981
vn -0.0460 -0.0176 0.9988
vn -0.0382 -0.0258 0.9989
vn -0.0260 -0.0156 0.9995
vn -0.0115 -0.0198 0.9997
vn 0.0061 -0.0111 0.9999
vn 0.0249 -0.0121 0.9996
vn 0.0394 -0.0055 0.9992
vn 0.0493 -0.0007 0.9988
vn 0.0587 0.0042 0.9983
vn 0.0640 0.0027 0.9979
vn 0.0668 0.0036 0.9978
vn 0.0649 -0.0003 0.9979
vn 0.0614 -0.0037 0.9981
vn 0.0496 0.0035 0.9988
vn 0.0435 -0.0058 0.9990
vn 0.0216 0.0136 0.9997
vn 0.0153 -0.0051 0.9999
vn -0.0512 0.0006 0.9987
vn -0.0465 -0.0134 0.9988
vn -0.0520 -0.0115 0.9986
vn -0.0510 0.0007 0.9987
vn -0.0634 0.0142 0.9979
vn -0.0480 0.0209 0.9986
vn -0.0481 0.0124 0.9988
vn -0.0323 -0.0263 0.9991
vn -0.0152 -0.0165 0.9997
vn -0.0046 -0.0158 0.9999
vn 0.0103 -0.0044 0.9999
vn 0.0257 -0.0069 0.9996
vn 0.0410 0.0020 0.9992
vn 0.0537 -0.0017 0.9986
vn 0.0613 0.0020 0.9981
vn 0.0652 0.0007 0.9979
vn 0.0666 0.0006 0.9978
vn 0.0643 -0.0003 0.9979
vn 0.0601 -0.0046 0.9982
vn 0.0466 0.0059 0.9989
vn 0.0384 -0.0075 0.9992
vn 0.0170 0.0146 0.9997
vn 0.0101 -0.0024 0.9999
vn -0.0134 0.0245 0.9996
vn -0.0217 0.0031 0.9998
vn -0.0413 -0.0816 0.9958
vn -0.1874 -0.1693 0.9676
vn -0.1686 -0.1645 0.9719
vn -0.0115 -0.0824 0.9965
vn 0.4166 0.1883 0.8894
vn 0.4303 0.1800 0.8845
vn 0.3536 0.2491 0.9016
vn 0.3621 0.2451 0.8993
vn -0.2811 -0.1512 0.9477
vn -0.2986 -0.1828 0.9367
vn -0.3941 -0.0496 0.9177
vn -0.4070 -0.0788 0.9100
vn -0.4542 -0.0048 0.8909
vn -0.4593 -0.0068 0.8883
vn -0.4510 -0.0954 0.8874
vn -0.4459 -0.1085 0.8885
vn -0.3930 -0.2177 0.8934
vn -0.3768 -0.2324 0.8967
vn -0.2676 -0.2299 0.9357
vn -0.2459 -0.2095 0.9464
vn -0.1243 -0.0887 0.9883
vn -0.0953 -0.0524 0.9941
vn 0.0486 0.0695 0.9964
vn 0.0770 0.1052 0.9915
vn 0.2050 0.2188 0.9540
vn 0.2330 0.2297 0.9450
vn 0.4255 -0.0202 0.9047
vn 0.3219 -0.0623 0.9447
vn 0.3401 -0.0474 0.9392
vn 0.4299 -0.0180 0.9027
vn -0.1581 -0.0260 0.9871
vn -0.1535 -0.0107 0.9881
vn 0.2011 0.0730 0.9768
vn 0.1750 -0.0152 0.9844
vn 0.0182 0.2112 0.9773
vn -0.0051 0.1400 0.9901
vn -0.1220 0.2264 0.9664
vn -0.1443 0.2084 0.9673
vn -0.2722 0.1263 0.9539
vn -0.2934 0.1211 0.9483
vn -0.3871 0.0182 0.9219
vn -0.4012 0.0156 0.9159
vn -0.4477 -0.0239 0.8939
vn -0.4519 -0.0253 0.8917
vn -0.4526 0.0155 0.8916
vn -0.4480 0.0198 0.8938
vn -0.4067 0.0540 0.9120
vn -0.3927 0.0566 0.9179
vn -0.3107 0.0084 0.9505
vn -0.2870 0.0049 0.9579
vn -0.3441 -0.0458 0.9378
vn -0.4305 -0.0663 0.9001
vn -0.4222 -0.0630 0.9043
vn -0.3470 -0.0441 0.9368
vn 0.4255 -0.0201 0.9047
vn 0.4300 -0.0180 0.9027
vn 0.4661 0.0688 0.8820
vn 0.4688 0.0816 0.8795
vn -0.4570 -0.0079 0.8894
vn -0.4577 -0.0132 0.8890
vn -0.4335 0.0600 0.8992
vn -0.4230 0.0632 0.9039
vn -0.3604 0.0587 0.9309
vn -0.3425 0.0457 0.9384
vn -0.2435 0.0013 0.9699
vn -0.2208 -0.0062 0.9753
vn -0.0902 0.0109 0.9959
vn -0.0638 0.0449 0.9970
vn 0.0823 0.1288 0.9882
vn 0.1113 0.1593 0.9809
vn 0.2522 0.2661 0.9303
vn 0.2792 0.2789 0.9188
vn 0.3859 0.2956 0.8739
vn 0.4015 0.2946 0.8672
vn 0.4602 0.2187 0.8604
vn 0.4633 0.2318 0.8553
vn -0.1578 0.0026 0.9875
vn 0.0184 0.0162 0.9997
vn -0.0115 0.0030 0.9999
vn -0.1804 0.0072 0.9836
vn -0.3441 -0.0457 0.9378
vn -0.2344 -0.0292 0.9717
vn -0.2352 -0.0412 0.9711
vn 0.1553 0.0346 0.9873
vn 0.1859 0.0363 0.9819
vn 0.3001 0.0041 0.9539
vn 0.3228 0.0058 0.9464
vn 0.4014 -0.0368 0.9152
vn 0.4156 -0.0358 0.9088
vn 0.4541 -0.0662 0.8885
vn 0.4577 -0.0656 0.8867
vn 0.4503 -0.0936 0.8879
vn 0.4449 -0.0952 0.8905
vn 0.4008 -0.1135 0.9091
vn 0.3857 -0.1230 0.9144
vn 0.2794 -0.1296 0.9514
vn 0.2528 -0.1522 0.9555
vn 0.1151 -0.0579 0.9917
vn 0.0859 -0.0989 0.9914
vn -0.0691 0.0090 0.9976
vn -0.0947 -0.0495 0.9943
usemtl vines_cute
s 1
f 1/1/1 2/2/2 3/3/3
f 3/3/3 4/4/4 1/1/1
f 5/5/5 6/6/6 7/7/7
f 7/7/7 8/8/8 5/5/5
f 9/9/9 3/3/3 2/2/2
f 2/2/2 10/10/10 9/9/9
f 11/11/11 9/9/9 10/10/10
f 10/10/10 12/12/12 11/11/11
f 13/13/13 11/11/11 12/12/12
f 12/12/12 14/14/14 13/13/13
f 15/15/15 13/13/13 14/14/14
f 14/14/14 16/16/16 15/15/15
f 17/17/17 15/15/15 16/16/16
f 16/16/16 18/18/18 17/17/17
f 19/19/19 17/17/17 18/18/18
f 18/18/18 20/20/20 19/19/19
f 21/21/21 19/19/19 20/20/20
f 20/20/20 22/22/22 21/21/21
f 23/23/23 21/21/21 22/22/22
f 22/22/22 24/24/24 23/23/23
f 25/25/25 23/23/23 24/24/24
f 7/7/7 25/25/25 26/26/26
f 26/26/26 8/8/8 7/7/7
f 24/24/24 26/26/26 25/25/25
f 27/27/27 28/28/28 29/29/29
f 29/29/29 30/30/30 27/27/27
f 31/31/1 32/32/4 33/33/31
f 33/33/31 34/34/32 31/31/1
f 35/35/33 29/29/29 28/28/28
f 28/28/28 36/36/34 35/35/33
f 37/37/35 35/35/33 36/36/34
f 36/36/34 38/38/36 37/37/35
f 39/39/37 37/37/35 38/38/36
f 38/38/36 40/40/38 39/39/37
f 41/41/39 39/39/37 40/40/38
f 40/40/38 42/42/40 41/41/39
f 43/43/41 41/41/39 42/42/40
f 42/42/40 44/44/42 43/43/41
f 45/45/43 43/43/41 44/44/42
f 44/44/42 46/46/44 45/45/43
f 47/47/45 45/45/43 46/46/44
f 46/46/44 48/48/46 47/47/45
f 49/49/47 47/47/45 48/48/46
f 48/48/46 50/50/48 49/49/47
f 51/51/49 49/49/47 50/50/48
f 33/33/31 51/51/49 52/52/50
f 52/52/50 34/34/32 33/33/31
f 50/50/48 52/52/50 51/51/49
f 53/53/51 54/54/52 55/55/53
f 55/55/53 56/56/54 53/53/51
f 57/57/27 58/58/30 59/59/55
f 59/59/55 60/60/56 57/57/27
f 61/61/57 55/55/53 54/54/52
f 54/54/52 62/62/58 61/61/57
f 63/63/59 61/61/57 62/62/58
f 62/62/58 64/64/60 63/63/59
f 65/65/61 63/63/59 64/64/60
f 64/64/60 66/66/62 65/65/61
f 67/67/63 65/65/61 66/66/62
f 66/66/62 68/68/64 67/67/63
f 69/69/65 67/67/63 68/68/64
f 68/68/64 70/70/66 69/69/65
f 71/71/67 69/69/65 70/70/66
f 70/70/66 72/72/68 71/71/67
f 73/73/69 71/71/67 72/72/68
f 72/72/68 74/74/70 73/73/69
f 75/75/71 73/73/69 74/74/70
f 74/74/70 76/76/72 75/75/71
f 77/77/73 75/75/71 76/76/72
f 59/59/55 77/77/73 78/78/74
f 78/78/74 60/60/56 59/59/55
f 76/76/72 78/78/74 77/77/73
f 79/79/75 80/80/76 81/81/77
f 81/81/77 82/82/78 79/79/75
f 83/83/79 84/84/54 85/85/80
f 85/85/80 86/86/81 83/83/79
f 87/87/82 81/81/77 80/80/76
f 80/80/76 88/88/83 87/87/82
f 89/89/84 87/87/82 88/88/83
f 88/88/83 90/90/85 89/89/84
f 91/91/86 89/89/84 90/90/85
f 90/90/85 92/92/87 91/91/86
f 93/93/88 91/91/86 92/92/87
f 92/92/87 94/94/89 93/93/88
f 95/95/90 93/93/88 94/94/89
f 94/94/89 96/96/91 95/95/90
f 97/97/92 95/95/90 96/96/91
f 96/96/91 98/98/93 97/97/92
f 99/99/94 97/97/92 98/98/93
f 98/98/93 100/100/95 99/99/94
f 101/101/96 99/99/94 100/100/95
f 100/100/95 102/102/97 101/101/96
f 103/103/98 101/101/96 102/102/97
f 85/85/80 103/103/98 104/104/99
f 104/104/99 86/86/81 85/85/80
f 102/102/97 104/104/99 103/103/98
f 105/105/100 106/106/101 107/107/102
f 107/107/102 108/108/103 105/105/100
f 109/109/104 110/110/105 111/111/106
f 111/111/106 112/112/107 109/109/104
f 113/113/108 107/107/102 106/106/101
f 106/106/101 114/114/109 113/113/108
f 115/115/110 113/113/108 114/114/109
f 114/114/109 116/116/111 115/115/110
f 117/117/112 115/115/110 116/116/111
f 116/116/111 118/118/113 117/117/112
f 119/119/114 117/117/112 118/118/113
f 118/118/113 120/120/115 119/119/114
f 121/121/116 119/119/114 120/120/115
f 120/120/115 122/122/117 121/121/116
f 123/123/118 121/121/116 122/122/117
f 122/122/117 124/124/119 123/123/118
f 125/125/120 123/123/118 124/124/119
f 124/124/119 126/126/121 125/125/120
f 127/127/122 125/125/120 126/126/121
f 126/126/121 128/128/123 127/127/122
f 129/129/124 127/127/122 128/128/123
f 111/111/106 129/129/124 130/130/125
f 130/130/125 112/112/107 111/111/106
f 128/128/123 130/130/125 129/129/124
f 131/131/126 132/132/127 133/133/128
f 133/133/128 134/134/129 131/131/126
f 135/135/100 136/136/103 137/137/130
f 137/137/130 138/138/131 135/135/100
f 139/139/132 133/133/128 132/132/127
f 132/132/127 140/140/133 139/139/132
f 141/141/134 139/139/132 140/140/133
f 140/140/133 142/142/135 141/141/134
f 143/143/136 141/141/134 142/142/135
f 142/142/135 144/144/137 143/143/136
f 145/145/138 143/143/136 144/144/137
f 144/144/137 146/146/139 145/145/138
f 147/147/140 145/145/138 146/146/139
f 146/146/139 148/148/141 147/147/140
f 149/149/142 147/147/140 148/148/141
f 148/148/141 150/150/143 149/149/142
f 151/151/144 149/149/142 150/150/143
f 150/150/143 152/152/145 151/151/144
f 153/153/146 151/151/144 152/152/145
f 152/152/145 154/154/147 153/153/146
f 155/155/148 153/153/146 154/154/147
f 137/137/130 155/155/148 156/156/149
f 156/156/149 138/138/131 137/137/130
f 154/154/147 156/156/149 155/155/148
f 157/157/150 158/158/151 159/159/152
f 159/159/152 160/160/153 157/157/150
f 161/161/154 162/162/155 163/163/156
f 163/163/156 164/164/157 161/161/154
f 165/165/158 159/159/152 158/158/151
f 158/158/151 166/166/159 165/165/158
f 167/167/160 165/165/158 166/166/159
f 166/166/159 168/168/161 167/167/160
f 169/169/162 167/167/160 168/168/161
f 168/168/161 170/170/163 169/169/162
f 171/171/164 169/169/162 170/170/163
f 170/170/163 172/172/165 171/171/164
f 173/173/166 171/171/164 172/172/165
f 172/172/165 174/174/167 173/173/166
f 175/175/168 173/173/166 174/174/167
f 174/174/167 176/176/169 175/175/168
f 177/177/170 175/175/168 176/176/169
f 176/176/169 178/178/171 177/177/170
f 179/179/172 177/177/170 178/178/171
f 178/178/171 180/180/173 179/179/172
f 181/181/174 179/179/172 180/180/173
f 163/163/156 181/181/174 182/182/175
f 182/182/175 164/164/157 163/163/156
f 180/180/173 182/182/175 181/181/174
f 183/183/176 184/184/177 185/185/178
f 185/185/178 186/186/179 183/183/176
f 187/187/180 188/188/153 189/189/181
f 189/189/181 190/190/182 187/187/180
f 191/191/183 185/185/178 184/184/177
f 184/184/177 192/192/184 191/191/183
f 193/193/185 191/191/183 192/192/184
f 192/192/184 194/194/186 193/193/185
f 195/195/187 193/193/185 194/194/186
f 194/194/186 196/196/188 195/195/187
f 197/197/189 195/195/187 196/196/188
f 196/196/188 198/198/190 197/197/189
f 199/199/191 197/197/189 198/198/190
f 198/198/190 200/200/192 199/199/191
f 201/201/193 199/199/191 200/200/192
f 200/200/192 202/202/194 201/201/193
f 203/203/195 201/201/193 202/202/194
f 202/202/194 204/204/196 203/203/195
f 205/205/197 203/203/195 204/204/196
f 204/204/196 206/206/198 205/205/197
f 207/207/199 205/205/197 206/206/198
f 189/189/181 207/207/199 208/208/200
f 208/208/200 190/190/182 189/189/181
f 206/206/198 208/208/200 207/207/199
