# Blender v2.77 (sub 0) OBJ File: ''
# www.blender.org
mtllib Hanging Moss.mtl
o MODELS_bin_016:poly000
v 0.073438 0.061953 0.026133
v -0.043906 0.144844 0.046602
v -0.001094 0.036250 0.000195
v 0.027188 0.061953 -0.043711
v 0.097461 0.075703 -0.025313
v 0.072188 0.176953 0.051250
v -0.101055 0.176953 0.036211
v -0.127852 0.091094 0.117500
v -0.081289 0.061953 -0.019102
v 0.000234 0.036250 0.000586
v -0.055859 0.144844 0.043086
v 0.059492 0.061953 -0.034258
v 0.084883 0.144844 0.027969
v -0.204648 0.002969 -0.086289
v -0.186133 -0.018242 0.032109
v -0.121211 -0.133867 -0.014883
v -0.122227 -0.057188 0.095234
v -0.047148 -0.181737 0.012915
v -0.084102 -0.227206 0.130610
v 0.030977 -0.223261 0.131782
v -0.032305 0.068633 -0.048008
v -0.000742 0.040156 0.000547
v -0.110039 0.160391 0.010000
v 0.098984 0.068633 -0.001758
v 0.021250 0.160391 0.056289
v -0.041055 0.061953 -0.010234
v 0.082891 0.144844 -0.009297
v 0.012227 0.036250 0.027031
v 0.080781 0.144844 0.064453
v -0.043164 0.061953 0.063555
v -0.075781 0.075703 -0.040352
v -0.000234 0.044297 0.000703
v -0.228867 -0.334237 0.006587
v -0.229258 -0.210097 0.007525
v -0.140703 -0.403144 0.024829
v -0.139336 -0.253612 0.035728
v -0.141758 -0.319706 0.084985
v -0.154141 -0.062070 0.026836
v -0.187969 -0.062070 0.071719
v -0.143320 0.072656 0.090039
v 0.233320 -0.309120 0.063657
v 0.229492 -0.145057 0.097603
v 0.174102 -0.308847 0.026470
v 0.173711 -0.184706 0.027407
v 0.235156 -0.308222 -0.010093
v 0.235000 -0.062070 -0.008164
v -0.204844 -0.344042 0.080181
v -0.216289 -0.209511 0.063462
v -0.101523 -0.343651 0.074907
v -0.101953 -0.206190 0.075923
v -0.073359 -0.344198 0.126118
v -0.074141 -0.068711 0.127539
v 0.272617 -0.550136 0.069439
v 0.150274 -0.550565 0.074634
v 0.256875 -0.319315 0.017017
v 0.149023 -0.137578 0.078203
v 0.250977 -0.060195 0.022305
v 0.137969 0.057109 0.072383
v 0.264102 0.044453 -0.019648
v 0.132148 0.189648 0.000195
v -0.115977 0.081133 0.008203
v 0.001094 0.047500 0.000547
v -0.002500 0.189648 0.067773
v 0.018633 0.081133 -0.059297
v -0.024023 -0.310604 0.118228
v -0.063945 -0.218300 0.134634
v 0.033867 -0.309940 0.080298
v 0.033477 -0.185800 0.081235
v 0.160586 -0.191698 0.101665
v 0.033359 -0.062070 0.081758
v 0.176563 0.092813 0.088086
v 0.030898 0.043633 0.075664
v 0.173828 -0.062070 0.028242
v 0.161758 0.043633 0.028164
v 0.214375 0.074531 -0.008320
v 0.039805 0.114844 0.146406
v -0.030703 0.053320 0.093164
v 0.041172 -0.075820 0.145313
v 0.091680 -0.287675 0.119868
v 0.157149 -0.246367 -0.035508
v 0.149610 -0.145977 0.017109
v 0.267774 -0.006016 -0.027969
v 0.240547 0.089219 0.021133
v -0.090156 0.144844 -0.023242
v -0.068750 0.105430 0.115313
v -0.165938 -0.012500 0.078945
v 0.206758 0.074531 0.099492
v -0.006406 -0.238281 -0.047695
v 0.114141 -0.111914 0.108828
v 0.218945 0.048984 0.082500
v 0.076836 -0.307948 0.141509
v 0.117852 0.097617 0.130938
v -0.094492 0.048320 0.070586
v -0.219844 0.068984 0.057344
v -0.102070 -0.068711 0.076250
v -0.214688 0.074531 -0.001563
v -0.142734 0.043633 0.024844
v -0.043125 -0.277969 -0.043477
v -0.033477 -0.345292 0.095610
v -0.130898 -0.357518 0.123384
v -0.064101 -0.617519 0.121860
v -0.043203 0.081758 0.127852
v 0.027891 -0.572675 0.095532
v 0.087305 -0.537870 0.142525
v 0.086133 -0.543222 0.139595
v -0.205625 0.079648 0.086602
v 0.116680 -0.309940 0.102720
vt 1.0000 1.0000
vt 1.0000 0.5000
vt 0.7998 1.0000
vt 1.0000 0.0000
vt -1.0000 1.0000
vt -1.1992 0.0000
vt -1.1992 1.0000
vt -1.3242 0.0000
vt 1.0000 0.0000
vt 0.7998 0.0000
vt 1.0000 0.5000
vt 1.0000 1.0000
vt 0.7998 1.0000
vt -1.0000 0.0000
vt -1.1992 0.0000
vt -1.0000 0.5000
vt -1.1992 1.0000
vt -1.3994 0.5000
vt -1.3994 1.0000
vt -1.5127 1.0000
vt 1.0000 1.0000
vt 0.7998 1.0000
vt 1.0000 0.5010
vt 1.0000 0.0000
vt 0.7998 0.0000
vt 1.0000 1.0000
vt 1.0000 0.5000
vt 0.7998 1.0000
vt 0.7998 0.0000
vt 1.0000 0.0000
vt -1.0000 0.0000
vt -1.0000 0.5000
vt 0.0000 0.0000
vt 0.0000 0.5010
vt 0.1992 0.0000
vt 0.1992 0.5010
vt 0.0000 1.0000
vt 0.3994 0.5010
vt 0.3994 1.0000
vt 0.5996 1.0000
vt 0.0000 0.0000
vt 0.0000 0.5010
vt 0.1992 0.0000
vt 0.1992 0.5010
vt 0.0000 1.0000
vt 0.3994 1.0000
vt 0.0000 1.0000
vt 0.0000 0.5000
vt 0.1992 1.0000
vt 0.1992 0.5000
vt 0.0000 0.0000
vt 0.3994 0.0000
vt 0.0000 0.0000
vt 0.1992 0.0000
vt 0.0000 0.5000
vt 0.3994 0.5000
vt 0.3994 0.0000
vt 0.5996 0.5010
vt 0.5996 0.0000
vt 0.7998 0.0000
vt 1.0000 1.0000
vt 0.7998 1.0000
vt 1.0000 0.5010
vt 1.0000 0.0000
vt 0.0000 0.0000
vt 0.0000 0.5010
vt 0.1992 0.0000
vt 0.1992 0.5010
vt 0.1992 1.0000
vt 0.3994 0.5010
vt 0.5996 1.0000
vt 0.5996 0.5000
vt 0.3994 0.5010
vt 0.5996 0.5000
vt 0.5996 1.0000
vt -1.3994 0.5000
vt -1.3994 1.0000
vt -1.5127 1.0000
vt -1.6641 1.0000
vt -1.7998 0.0000
vt -2.0000 0.0000
vt -1.7998 0.5010
vt -2.0000 0.5010
vt 0.7998 0.0000
vt 0.5996 0.0000
vt -1.4639 0.0000
vt 0.5996 0.0000
vt -1.4639 0.0000
vt -1.6641 1.0000
vt -2.0000 1.0000
vt 0.1992 1.0000
vt 0.5996 1.0000
vt 0.5996 1.0000
vt 0.5996 0.5010
vt 0.3994 0.5000
vt 0.5996 0.0000
vt 0.5996 0.5000
vt -1.3242 0.0000
vt -1.7998 0.0000
vt -1.7998 0.5010
vt -2.0000 0.0000
vt 0.5996 0.0000
vt -2.0000 0.5010
vt -2.0000 1.0000
vt 0.0000 1.0000
vt -1.0000 1.0000
vt 0.0000 1.0000
vn 0.1562 0.4396 -0.8845
vn 0.8168 0.0777 0.5716
vn 0.0684 0.6125 -0.7875
vn -0.0621 0.6963 0.7150
vn 0.3479 0.4920 -0.7981
vn -0.5254 0.0608 -0.8487
vn -0.0842 0.6146 -0.7843
vn -0.8632 -0.5029 0.0449
vn -0.7277 -0.5660 0.3874
vn -0.5975 -0.6606 0.4545
vn -0.8808 -0.2774 -0.3837
vn 0.0357 -0.9359 -0.3504
vn 0.7342 0.6739 -0.0821
vn -0.0361 0.0457 -0.9983
vn 0.2498 0.6599 -0.7086
vn -0.3312 0.4861 0.8087
vn -0.8416 0.5396 -0.0241
vn -0.3159 0.4812 -0.8177
vn 0.5614 0.5837 -0.5866
vn -0.2721 0.0504 -0.9609
vn -0.2086 -0.0080 0.9780
vn -0.3274 -0.0657 0.9426
vn -0.9994 0.0116 -0.0336
vn -0.9835 -0.0835 -0.1603
vn -0.7867 -0.1716 -0.5930
vn -0.7546 0.3274 -0.5687
vn 0.5233 0.1843 -0.8320
vn 0.7809 0.0072 -0.6246
vn 0.5138 -0.0049 0.8579
vn 0.5115 -0.0064 0.8593
vn 0.5115 -0.0064 0.8592
vn 0.5114 -0.0064 0.8593
vn 0.0501 0.1274 0.9906
vn -0.1081 -0.0077 0.9941
vn -0.8762 -0.0063 0.4818
vn -0.8747 -0.0050 0.4846
vn 0.0406 0.2239 0.9738
vn 0.4857 -0.0061 0.8741
vn 0.4847 -0.0068 0.8746
vn 0.4494 0.0522 0.8918
vn 0.5881 0.2363 0.7735
vn 0.5632 0.4142 0.7150
vn 0.0640 0.4280 -0.9015
vn -0.9681 0.0867 -0.2350
vn -0.3237 0.6922 -0.6450
vn 0.5452 0.0876 0.8337
vn 0.4820 -0.0051 0.8762
vn -0.1590 -0.0080 0.9872
vn -0.1589 -0.0043 0.9873
vn -0.1013 0.0531 0.9934
vn -0.1032 0.0549 0.9931
vn -0.2445 0.5170 0.8203
vn 0.0988 0.3806 0.9194
vn 0.5105 0.0589 0.8578
vn 0.5350 0.0817 0.8409
vn -0.7226 0.6652 0.1883
vn -0.5976 -0.0089 0.8017
vn -0.8260 -0.2572 0.5016
vn 0.6422 -0.3175 0.6977
vn 0.5785 -0.2370 0.7805
vn -0.4667 0.8287 0.3090
vn 0.5043 0.7964 -0.3339
vn 0.5928 0.6577 0.4647
vn 0.4012 0.0605 0.9140
vn 0.0854 -0.3750 0.9231
vn 0.2763 0.0943 0.9564
vn 0.5120 0.6220 -0.5924
vn 0.7846 0.6197 0.0224
vn 0.2669 0.5105 0.8174
vn -0.0887 -0.4676 0.8795
vn 0.3174 -0.8423 0.4356
vn 0.7765 -0.4305 0.4602
vn 0.9232 -0.0836 0.3750
vn 0.9623 0.1615 0.2189
vn -0.0149 0.4739 0.8804
vn -0.0960 0.0543 0.9939
vn -0.1356 0.0200 0.9906
vn -0.1083 -0.0025 0.9941
vn -0.1162 0.4748 0.8724
vn -0.9053 0.3850 -0.1795
vn -0.9928 0.1061 -0.0561
vn -0.5504 -0.4391 0.7101
vn 0.5304 -0.4120 0.7409
vn 0.2538 0.1489 0.9557
vn 0.2663 0.0628 0.9618
vn 0.5114 -0.0063 0.8593
vn 0.7819 0.0035 -0.6233
vn 0.8267 0.0904 -0.5553
vn -0.6721 0.7175 0.1830
vn -0.7798 0.1591 0.6055
vn -0.8754 0.0798 0.4767
vn -0.8782 -0.0019 0.4782
vn 0.2448 0.0657 0.9673
vn -0.5574 -0.1507 0.8164
vn 0.6338 0.0188 0.7732
vn 0.7114 -0.0039 0.7028
vn -0.3349 0.0472 0.9411
vn -0.3240 0.0528 0.9446
vn -0.2300 0.0918 0.9688
vn -0.1935 0.0074 0.9811
vn 0.5889 -0.5600 -0.5827
vn -0.0654 -0.7512 0.6568
vn 0.4815 -0.0032 0.8765
vn 0.3978 0.0620 0.9154
vn -0.3017 0.4207 0.8556
vn 0.2872 0.7682 0.5722
vn 0.9284 -0.3605 0.0904
vn 0.8232 0.0936 -0.5599
vn -0.7536 -0.4278 0.4990
vn -0.1079 0.0069 0.9941
vn 0.5786 0.0572 0.8136
vn -0.2895 0.0220 0.9569
vn -0.2599 0.1051 0.9599
usemtl None
s 1
f 1/1/1 3/2/1 2/3/1
f 2/3/2 3/2/2 4/4/2
f 5/5/3 7/6/3 6/7/3
f 6/7/4 7/6/4 8/8/4
f 9/9/5 11/10/5 10/11/5
f 10/11/6 11/10/6 12/12/6
f 11/10/7 13/13/7 12/12/7
f 14/14/8 16/15/8 15/16/8
f 15/16/9 16/15/9 17/17/9
f 16/15/10 18/18/10 17/17/10
f 17/17/11 18/18/11 19/19/11
f 18/18/12 20/20/12 19/19/12
f 21/21/13 23/22/13 22/23/13
f 22/23/14 23/22/14 24/24/14
f 23/22/15 25/25/15 24/24/15
f 26/26/16 28/27/16 27/28/16
f 27/28/17 28/27/17 29/29/17
f 28/27/18 30/30/18 29/29/18
f 31/31/19 7/6/19 32/32/19
f 32/32/20 7/6/20 5/5/20
f 33/33/21 35/34/21 34/35/21
f 34/35/22 35/34/22 36/36/22
f 35/34/23 37/37/23 36/36/23
f 36/36/24 37/37/24 38/38/24
f 37/37/25 39/39/25 38/38/25
f 38/38/26 39/39/26 40/40/26
f 41/41/27 43/42/27 42/43/27
f 42/43/28 43/42/28 44/44/28
f 43/42/29 45/45/29 44/44/29
f 44/44/30 45/45/31 46/46/32
f 47/47/33 49/48/33 48/49/33
f 48/49/34 49/48/34 50/50/34
f 49/48/35 51/51/35 50/50/35
f 50/50/36 51/51/36 52/52/36
f 53/53/37 55/54/37 54/55/37
f 54/55/38 55/54/38 56/56/38
f 55/54/39 57/57/39 56/56/39
f 56/56/40 57/57/40 58/58/40
f 57/57/41 59/59/41 58/58/41
f 58/58/42 59/59/42 60/60/42
f 61/61/43 63/62/43 62/63/43
f 62/63/44 63/62/44 64/64/44
f 63/62/45 60/60/45 64/64/45
f 65/65/46 67/66/46 66/67/46
f 66/67/47 67/66/47 68/68/47
f 67/66/48 69/69/48 68/68/48
f 68/68/49 69/69/49 70/70/49
f 69/69/50 71/71/50 70/70/50
f 70/70/51 71/71/51 72/72/51
f 71/71/52 13/13/52 72/72/52
f 72/72/53 13/13/53 11/10/53
f 73/73/54 46/46/54 74/74/54
f 74/74/55 46/46/55 75/75/55
f 6/7/56 77/76/56 76/77/56
f 76/77/57 77/76/57 78/78/57
f 77/76/58 79/79/58 78/78/58
f 80/80/59 82/81/59 81/82/59
f 81/82/60 82/81/60 83/83/60
f 40/40/61 2/3/61 84/84/61
f 84/84/62 2/3/62 4/4/62
f 11/10/63 85/85/63 72/72/63
f 72/72/64 85/85/64 66/67/64
f 86/86/65 77/76/65 8/8/65
f 8/8/66 77/76/66 6/7/66
f 87/87/67 74/74/67 29/29/67
f 29/29/68 74/74/68 27/28/68
f 74/74/69 75/75/69 27/28/69
f 80/80/70 81/82/70 88/88/70
f 88/88/71 81/82/71 89/89/71
f 81/82/72 90/90/72 89/89/72
f 91/91/73 58/58/73 92/92/73
f 92/92/74 58/58/74 60/60/74
f 23/22/75 94/93/75 93/94/75
f 93/94/76 94/93/76 95/95/76
f 94/93/77 48/49/77 95/95/77
f 95/95/78 48/49/78 50/50/78
f 96/96/79 97/97/79 84/84/79
f 84/84/80 97/97/80 40/40/80
f 97/97/81 38/38/81 40/40/81
f 16/15/82 98/98/82 18/18/82
f 18/18/83 98/98/83 88/88/83
f 86/86/84 100/99/84 99/100/84
f 99/100/85 100/99/85 101/101/85
f 46/46/32 73/73/86 44/44/30
f 44/44/87 73/73/87 42/43/87
f 73/73/88 87/87/88 42/43/88
f 25/25/89 93/94/89 102/102/89
f 102/102/90 93/94/90 52/52/90
f 93/94/91 95/95/91 52/52/91
f 52/52/92 95/95/92 50/50/92
f 101/101/93 103/103/93 99/100/93
f 99/100/94 103/103/94 104/104/94
f 91/91/95 105/105/95 56/56/95
f 56/56/96 105/105/96 54/55/96
f 34/35/97 38/38/97 96/96/97
f 96/96/98 38/38/98 97/97/98
f 104/104/99 79/79/99 99/100/99
f 99/100/100 79/79/100 77/76/100
f 20/20/101 18/18/101 89/89/101
f 89/89/102 18/18/102 88/88/102
f 68/68/103 70/70/103 66/67/103
f 66/67/104 70/70/104 72/72/104
f 93/94/105 25/25/105 23/22/105
f 60/60/106 63/62/106 92/92/106
f 81/82/107 83/83/107 90/90/107
f 74/74/108 87/87/108 73/73/108
f 17/17/109 106/106/109 15/16/109
f 77/76/110 86/86/110 99/100/110
f 58/58/111 91/91/111 56/56/111
f 38/38/112 34/35/112 36/36/112
f 69/69/113 67/66/113 107/107/113
